<?xml version="1.0" standalone="no"?>
<!DOCTYPE svg PUBLIC "-//W3C//DTD SVG 20010904//EN"
 "http://www.w3.org/TR/2001/REC-SVG-20010904/DTD/svg10.dtd">
<svg version="1.0" xmlns="http://www.w3.org/2000/svg"
 width="720.000000pt" height="720.000000pt" viewBox="0 0 720.000000 720.000000"
 preserveAspectRatio="xMidYMid meet">

<g transform="translate(0.000000,720.000000) scale(0.100000,-0.100000)"
fill="#000000" stroke="none">
<path d="M2280 5603 c-227 -132 -357 -207 -635 -368 -93 -53 -187 -108 -207
-121 l-38 -24 0 -635 0 -635 123 -1 c198 -1 318 -23 542 -97 145 -47 318 -142
429 -235 45 -38 50 -40 60 -23 83 136 157 222 256 295 79 59 225 139 293 161
20 6 37 16 37 21 0 14 -121 223 -134 231 -6 4 -70 8 -141 8 l-131 0 -37 65
c-20 35 -37 71 -37 80 0 13 28 15 220 15 l220 0 24 -39 c14 -21 56 -94 95
-162 97 -172 88 -162 142 -150 25 6 89 13 142 17 l97 7 -2 541 -3 540 -115 66
c-216 125 -455 263 -545 315 -300 174 -402 233 -420 242 -17 9 -53 -8 -235
-114z"/>
<path d="M3259 3581 c-23 -24 -29 -38 -29 -74 0 -38 5 -49 31 -71 55 -47 130
-26 159 44 10 24 10 36 0 60 -30 73 -109 92 -161 41z"/>
<path d="M3808 3581 c-27 -24 -33 -36 -33 -71 0 -35 6 -47 33 -71 44 -40 93
-40 133 0 62 62 20 171 -65 171 -25 0 -45 -9 -68 -29z"/>
<path d="M2507 2963 c-11 -10 -8 -191 2 -197 5 -4 497 -6 1093 -7 l1083 0 5
96 c3 52 4 100 2 105 -4 11 -2174 14 -2185 3z"/>
<path d="M2504 2517 c-3 -8 -4 -54 -2 -103 l3 -89 1092 -3 1093 -2 6 23 c3 13
4 60 2 103 l-3 79 -1093 3 c-903 2 -1093 0 -1098 -11z"/>
</g>
</svg>
